<svg xmlns="http://www.w3.org/2000/svg" xmlns:xlink="http://www.w3.org/1999/xlink" viewBox="0 0 196 196"><defs><style>.cls-1{fill:url(#linear-gradient);}.cls-2{fill:url(#linear-gradient-2);}.cls-3{fill:url(#linear-gradient-3);}.cls-4{fill:url(#linear-gradient-4);}.cls-5{fill:url(#linear-gradient-5);}</style><linearGradient id="linear-gradient" x1="-420.5" y1="394.61" x2="-420.5" y2="393.62" gradientTransform="matrix(-32.09, -67.44, -42.59, 50.82, 3357.29, -48355.12)" gradientUnits="userSpaceOnUse"><stop offset="0" stop-color="#17b172"/><stop offset="1" stop-color="#64dca2" stop-opacity="0.9"/></linearGradient><linearGradient id="linear-gradient-2" x1="-420.61" y1="394.61" x2="-420.61" y2="393.62" gradientTransform="matrix(-48.72, -134.38, -64.66, 101.27, 5029.87, -96348.12)" gradientUnits="userSpaceOnUse"><stop offset="0" stop-color="#3bd488"/><stop offset="1" stop-color="#3bd288"/></linearGradient><linearGradient id="linear-gradient-3" x1="-420.64" y1="394.61" x2="-420.64" y2="393.62" gradientTransform="matrix(-28.06, 53.76, 21.14, 71.35, -20099.88, -5383.04)" gradientUnits="userSpaceOnUse"><stop offset="0" stop-color="#64dca2"/><stop offset="1" stop-color="#64dca2"/></linearGradient><linearGradient id="linear-gradient-4" x1="-420.68" y1="394.6" x2="-420.68" y2="393.61" gradientTransform="matrix(-30.73, -79.46, -40.78, 59.88, 3235.9, -56872.63)" gradientUnits="userSpaceOnUse"><stop offset="0" stop-color="#3bcf88"/><stop offset="1" stop-color="#007146"/></linearGradient><linearGradient id="linear-gradient-5" x1="-420.59" y1="394.61" x2="-420.59" y2="393.62" gradientTransform="matrix(-75.16, -147.29, -99.74, 110.99, 7830.75, -105585.24)" gradientUnits="userSpaceOnUse"><stop offset="0" stop-color="#17c672"/><stop offset="1" stop-color="#64ebbb"/></linearGradient></defs><title>tnc_ico</title><g id="Layer_2" data-name="Layer 2"><g id="Layer_1-2" data-name="Layer 1"><path class="cls-1" d="M95.83,19.6q3.27-10.68-1-15.87-4.08-5.1-14-3.23a32.51,32.51,0,0,0-13.7,6.66,51.64,51.64,0,0,0-13.4,15.58Q39.62,46.94,46,83.19,67.33,63.8,80.44,46.65,92.16,31.26,95.83,19.6Z"/><path class="cls-2" d="M51.34,83.19Q50.05,49,54.42,32.05,60.68,7.36,80.83.5,38.14,12,17.18,42.34-.19,67.61,0,101a119.18,119.18,0,0,0,3.38,27.53A91.83,91.83,0,0,0,12,150.61q5.46,9.3,11.72,13.22,6.54,4.13,12.51,1.28,13.39-6.27,15.69-31a207.75,207.75,0,0,0,.49-24.2Q51.74,92.21,51.34,83.19Z"/><path class="cls-3" d="M51.24,79.37v-1a108.28,108.28,0,0,0-30.09,46.45,67.61,67.61,0,0,0-3.67,21.36q.11,9.88,4.27,15.38a10.58,10.58,0,0,0,3.48,3.14,11.42,11.42,0,0,0,10.82.58q13.61-6.47,15.89-32.62a231,231,0,0,0,.49-25.58Q51.64,88.68,51.24,79.37Z"/><path class="cls-4" d="M65,180.39q-4.28,9.21,6.35,12.15,12.21,3.44,25-12,12.4-14.9,16.88-36.45a70.75,70.75,0,0,0-5.76-45.27l-2-3.62q4.17,16.26-4.47,34.49-5.76,12-19.86,29.1-8.94,10.88-9.73,11.95A58.13,58.13,0,0,0,65,180.39Z"/><path class="cls-5" d="M193.25,75.55a93.26,93.26,0,0,0-16.39-34.68,94.94,94.94,0,0,0-19.26-19.5,33.64,33.64,0,0,0-24.53-6.86,33.17,33.17,0,0,0-22.54,11.86A57.32,57.32,0,0,0,98.21,51.84q-3.87,17.92,2,40.37,10.81,41.64-8,75.15a90.62,90.62,0,0,1-14,18.91,66.15,66.15,0,0,1-7,6.27,98.23,98.23,0,0,0,44,1.77A97.69,97.69,0,0,0,157,176.18a95,95,0,0,0,25.62-28.61,97.23,97.23,0,0,0,10.63-72Z"/></g></g></svg>